%TF.GenerationSoftware,KiCad,Pcbnew,7.0.11+dfsg-1build4*%
%TF.CreationDate,2026-06-23T20:01:27+00:00*%
%TF.ProjectId,princeton_reverb_aa1164,7072696e-6365-4746-9f6e-5f7265766572,rev?*%
%TF.SameCoordinates,Original*%
%TF.FileFunction,Drillmap*%
%TF.FilePolarity,Positive*%
%FSLAX45Y45*%
G04 Gerber Fmt 4.5, Leading zero omitted, Abs format (unit mm)*
G04 Created by KiCad (PCBNEW 7.0.11+dfsg-1build4) date 2026-06-23 20:01:27*
%MOMM*%
%LPD*%
G01*
G04 APERTURE LIST*
%ADD10C,0.150000*%
%ADD11C,0.200000*%
%ADD12C,0.100000*%
%ADD13C,0.120000*%
%ADD14C,0.160000*%
%ADD15C,0.320000*%
G04 APERTURE END LIST*
D10*
X0Y0D02*
X6000000Y0D01*
X6000000Y0D02*
X6000000Y-5400000D01*
X0Y-5400000D02*
X0Y0D01*
X6000000Y-5400000D02*
X0Y-5400000D01*
D11*
D12*
X2850000Y-2650000D02*
X2950000Y-2750000D01*
X2950000Y-2650000D02*
X2850000Y-2750000D01*
X3650000Y-2650000D02*
X3750000Y-2750000D01*
X3750000Y-2650000D02*
X3650000Y-2750000D01*
D13*
X660000Y-1100000D02*
G75*
G03*
X540000Y-1100000I-60000J0D01*
G01*
X540000Y-1100000D02*
G75*
G03*
X660000Y-1100000I60000J0D01*
G01*
X660000Y-1608000D02*
G75*
G03*
X540000Y-1608000I-60000J0D01*
G01*
X540000Y-1608000D02*
G75*
G03*
X660000Y-1608000I60000J0D01*
G01*
X660000Y-2300000D02*
G75*
G03*
X540000Y-2300000I-60000J0D01*
G01*
X540000Y-2300000D02*
G75*
G03*
X660000Y-2300000I60000J0D01*
G01*
X660000Y-2808000D02*
G75*
G03*
X540000Y-2808000I-60000J0D01*
G01*
X540000Y-2808000D02*
G75*
G03*
X660000Y-2808000I60000J0D01*
G01*
X1685000Y-1600000D02*
G75*
G03*
X1565000Y-1600000I-60000J0D01*
G01*
X1565000Y-1600000D02*
G75*
G03*
X1685000Y-1600000I60000J0D01*
G01*
X1685000Y-4000000D02*
G75*
G03*
X1565000Y-4000000I-60000J0D01*
G01*
X1565000Y-4000000D02*
G75*
G03*
X1685000Y-4000000I60000J0D01*
G01*
X2435000Y-1600000D02*
G75*
G03*
X2315000Y-1600000I-60000J0D01*
G01*
X2315000Y-1600000D02*
G75*
G03*
X2435000Y-1600000I60000J0D01*
G01*
X2435000Y-4000000D02*
G75*
G03*
X2315000Y-4000000I-60000J0D01*
G01*
X2315000Y-4000000D02*
G75*
G03*
X2435000Y-4000000I60000J0D01*
G01*
X4285000Y-1600000D02*
G75*
G03*
X4165000Y-1600000I-60000J0D01*
G01*
X4165000Y-1600000D02*
G75*
G03*
X4285000Y-1600000I60000J0D01*
G01*
X4285000Y-4000000D02*
G75*
G03*
X4165000Y-4000000I-60000J0D01*
G01*
X4165000Y-4000000D02*
G75*
G03*
X4285000Y-4000000I60000J0D01*
G01*
X5035000Y-1600000D02*
G75*
G03*
X4915000Y-1600000I-60000J0D01*
G01*
X4915000Y-1600000D02*
G75*
G03*
X5035000Y-1600000I60000J0D01*
G01*
X5035000Y-4000000D02*
G75*
G03*
X4915000Y-4000000I-60000J0D01*
G01*
X4915000Y-4000000D02*
G75*
G03*
X5035000Y-4000000I60000J0D01*
G01*
D14*
X900000Y-4820000D02*
X900000Y-4980000D01*
X820000Y-4900000D02*
X980000Y-4900000D01*
X1625000Y-620000D02*
X1625000Y-780000D01*
X1545000Y-700000D02*
X1705000Y-700000D01*
X1625000Y-4820000D02*
X1625000Y-4980000D01*
X1545000Y-4900000D02*
X1705000Y-4900000D01*
X4225000Y-620000D02*
X4225000Y-780000D01*
X4145000Y-700000D02*
X4305000Y-700000D01*
X4225000Y-4820000D02*
X4225000Y-4980000D01*
X4145000Y-4900000D02*
X4305000Y-4900000D01*
X5500000Y-4820000D02*
X5500000Y-4980000D01*
X5420000Y-4900000D02*
X5580000Y-4900000D01*
D15*
X5863138Y-1013138D02*
X5863138Y-786862D01*
X5636862Y-786862D01*
X5636862Y-1013138D01*
X5863138Y-1013138D01*
X5863138Y-4613138D02*
X5863138Y-4386862D01*
X5636862Y-4386862D01*
X5636862Y-4613138D01*
X5863138Y-4613138D01*
D11*
X253277Y-5718984D02*
X253277Y-5518984D01*
X253277Y-5518984D02*
X300896Y-5518984D01*
X300896Y-5518984D02*
X329467Y-5528508D01*
X329467Y-5528508D02*
X348515Y-5547555D01*
X348515Y-5547555D02*
X358039Y-5566603D01*
X358039Y-5566603D02*
X367562Y-5604698D01*
X367562Y-5604698D02*
X367562Y-5633269D01*
X367562Y-5633269D02*
X358039Y-5671365D01*
X358039Y-5671365D02*
X348515Y-5690412D01*
X348515Y-5690412D02*
X329467Y-5709460D01*
X329467Y-5709460D02*
X300896Y-5718984D01*
X300896Y-5718984D02*
X253277Y-5718984D01*
X453277Y-5718984D02*
X453277Y-5585650D01*
X453277Y-5623746D02*
X462801Y-5604698D01*
X462801Y-5604698D02*
X472324Y-5595174D01*
X472324Y-5595174D02*
X491372Y-5585650D01*
X491372Y-5585650D02*
X510420Y-5585650D01*
X577086Y-5718984D02*
X577086Y-5585650D01*
X577086Y-5518984D02*
X567563Y-5528508D01*
X567563Y-5528508D02*
X577086Y-5538031D01*
X577086Y-5538031D02*
X586610Y-5528508D01*
X586610Y-5528508D02*
X577086Y-5518984D01*
X577086Y-5518984D02*
X577086Y-5538031D01*
X700896Y-5718984D02*
X681848Y-5709460D01*
X681848Y-5709460D02*
X672324Y-5690412D01*
X672324Y-5690412D02*
X672324Y-5518984D01*
X805658Y-5718984D02*
X786610Y-5709460D01*
X786610Y-5709460D02*
X777086Y-5690412D01*
X777086Y-5690412D02*
X777086Y-5518984D01*
X1034229Y-5718984D02*
X1034229Y-5518984D01*
X1034229Y-5518984D02*
X1100896Y-5661841D01*
X1100896Y-5661841D02*
X1167563Y-5518984D01*
X1167563Y-5518984D02*
X1167563Y-5718984D01*
X1348515Y-5718984D02*
X1348515Y-5614222D01*
X1348515Y-5614222D02*
X1338991Y-5595174D01*
X1338991Y-5595174D02*
X1319944Y-5585650D01*
X1319944Y-5585650D02*
X1281848Y-5585650D01*
X1281848Y-5585650D02*
X1262801Y-5595174D01*
X1348515Y-5709460D02*
X1329467Y-5718984D01*
X1329467Y-5718984D02*
X1281848Y-5718984D01*
X1281848Y-5718984D02*
X1262801Y-5709460D01*
X1262801Y-5709460D02*
X1253277Y-5690412D01*
X1253277Y-5690412D02*
X1253277Y-5671365D01*
X1253277Y-5671365D02*
X1262801Y-5652317D01*
X1262801Y-5652317D02*
X1281848Y-5642793D01*
X1281848Y-5642793D02*
X1329467Y-5642793D01*
X1329467Y-5642793D02*
X1348515Y-5633269D01*
X1443753Y-5585650D02*
X1443753Y-5785650D01*
X1443753Y-5595174D02*
X1462801Y-5585650D01*
X1462801Y-5585650D02*
X1500896Y-5585650D01*
X1500896Y-5585650D02*
X1519943Y-5595174D01*
X1519943Y-5595174D02*
X1529467Y-5604698D01*
X1529467Y-5604698D02*
X1538991Y-5623746D01*
X1538991Y-5623746D02*
X1538991Y-5680888D01*
X1538991Y-5680888D02*
X1529467Y-5699936D01*
X1529467Y-5699936D02*
X1519943Y-5709460D01*
X1519943Y-5709460D02*
X1500896Y-5718984D01*
X1500896Y-5718984D02*
X1462801Y-5718984D01*
X1462801Y-5718984D02*
X1443753Y-5709460D01*
X1624705Y-5699936D02*
X1634229Y-5709460D01*
X1634229Y-5709460D02*
X1624705Y-5718984D01*
X1624705Y-5718984D02*
X1615182Y-5709460D01*
X1615182Y-5709460D02*
X1624705Y-5699936D01*
X1624705Y-5699936D02*
X1624705Y-5718984D01*
X1624705Y-5595174D02*
X1634229Y-5604698D01*
X1634229Y-5604698D02*
X1624705Y-5614222D01*
X1624705Y-5614222D02*
X1615182Y-5604698D01*
X1615182Y-5604698D02*
X1624705Y-5595174D01*
X1624705Y-5595174D02*
X1624705Y-5614222D01*
D12*
X-107500Y-5997500D02*
X-7500Y-6097500D01*
X-7500Y-5997500D02*
X-107500Y-6097500D01*
D11*
X358039Y-6138984D02*
X243753Y-6138984D01*
X300896Y-6138984D02*
X300896Y-5938984D01*
X300896Y-5938984D02*
X281848Y-5967555D01*
X281848Y-5967555D02*
X262801Y-5986603D01*
X262801Y-5986603D02*
X243753Y-5996127D01*
X443753Y-6119936D02*
X453277Y-6129460D01*
X453277Y-6129460D02*
X443753Y-6138984D01*
X443753Y-6138984D02*
X434229Y-6129460D01*
X434229Y-6129460D02*
X443753Y-6119936D01*
X443753Y-6119936D02*
X443753Y-6138984D01*
X577086Y-5938984D02*
X596134Y-5938984D01*
X596134Y-5938984D02*
X615182Y-5948508D01*
X615182Y-5948508D02*
X624705Y-5958031D01*
X624705Y-5958031D02*
X634229Y-5977079D01*
X634229Y-5977079D02*
X643753Y-6015174D01*
X643753Y-6015174D02*
X643753Y-6062793D01*
X643753Y-6062793D02*
X634229Y-6100888D01*
X634229Y-6100888D02*
X624705Y-6119936D01*
X624705Y-6119936D02*
X615182Y-6129460D01*
X615182Y-6129460D02*
X596134Y-6138984D01*
X596134Y-6138984D02*
X577086Y-6138984D01*
X577086Y-6138984D02*
X558039Y-6129460D01*
X558039Y-6129460D02*
X548515Y-6119936D01*
X548515Y-6119936D02*
X538991Y-6100888D01*
X538991Y-6100888D02*
X529467Y-6062793D01*
X529467Y-6062793D02*
X529467Y-6015174D01*
X529467Y-6015174D02*
X538991Y-5977079D01*
X538991Y-5977079D02*
X548515Y-5958031D01*
X548515Y-5958031D02*
X558039Y-5948508D01*
X558039Y-5948508D02*
X577086Y-5938984D01*
X767562Y-5938984D02*
X786610Y-5938984D01*
X786610Y-5938984D02*
X805658Y-5948508D01*
X805658Y-5948508D02*
X815182Y-5958031D01*
X815182Y-5958031D02*
X824705Y-5977079D01*
X824705Y-5977079D02*
X834229Y-6015174D01*
X834229Y-6015174D02*
X834229Y-6062793D01*
X834229Y-6062793D02*
X824705Y-6100888D01*
X824705Y-6100888D02*
X815182Y-6119936D01*
X815182Y-6119936D02*
X805658Y-6129460D01*
X805658Y-6129460D02*
X786610Y-6138984D01*
X786610Y-6138984D02*
X767562Y-6138984D01*
X767562Y-6138984D02*
X748515Y-6129460D01*
X748515Y-6129460D02*
X738991Y-6119936D01*
X738991Y-6119936D02*
X729467Y-6100888D01*
X729467Y-6100888D02*
X719943Y-6062793D01*
X719943Y-6062793D02*
X719943Y-6015174D01*
X719943Y-6015174D02*
X729467Y-5977079D01*
X729467Y-5977079D02*
X738991Y-5958031D01*
X738991Y-5958031D02*
X748515Y-5948508D01*
X748515Y-5948508D02*
X767562Y-5938984D01*
X958039Y-5938984D02*
X977086Y-5938984D01*
X977086Y-5938984D02*
X996134Y-5948508D01*
X996134Y-5948508D02*
X1005658Y-5958031D01*
X1005658Y-5958031D02*
X1015182Y-5977079D01*
X1015182Y-5977079D02*
X1024705Y-6015174D01*
X1024705Y-6015174D02*
X1024705Y-6062793D01*
X1024705Y-6062793D02*
X1015182Y-6100888D01*
X1015182Y-6100888D02*
X1005658Y-6119936D01*
X1005658Y-6119936D02*
X996134Y-6129460D01*
X996134Y-6129460D02*
X977086Y-6138984D01*
X977086Y-6138984D02*
X958039Y-6138984D01*
X958039Y-6138984D02*
X938991Y-6129460D01*
X938991Y-6129460D02*
X929467Y-6119936D01*
X929467Y-6119936D02*
X919943Y-6100888D01*
X919943Y-6100888D02*
X910420Y-6062793D01*
X910420Y-6062793D02*
X910420Y-6015174D01*
X910420Y-6015174D02*
X919943Y-5977079D01*
X919943Y-5977079D02*
X929467Y-5958031D01*
X929467Y-5958031D02*
X938991Y-5948508D01*
X938991Y-5948508D02*
X958039Y-5938984D01*
X1110420Y-6138984D02*
X1110420Y-6005650D01*
X1110420Y-6024698D02*
X1119944Y-6015174D01*
X1119944Y-6015174D02*
X1138991Y-6005650D01*
X1138991Y-6005650D02*
X1167563Y-6005650D01*
X1167563Y-6005650D02*
X1186610Y-6015174D01*
X1186610Y-6015174D02*
X1196134Y-6034222D01*
X1196134Y-6034222D02*
X1196134Y-6138984D01*
X1196134Y-6034222D02*
X1205658Y-6015174D01*
X1205658Y-6015174D02*
X1224705Y-6005650D01*
X1224705Y-6005650D02*
X1253277Y-6005650D01*
X1253277Y-6005650D02*
X1272325Y-6015174D01*
X1272325Y-6015174D02*
X1281848Y-6034222D01*
X1281848Y-6034222D02*
X1281848Y-6138984D01*
X1377086Y-6138984D02*
X1377086Y-6005650D01*
X1377086Y-6024698D02*
X1386610Y-6015174D01*
X1386610Y-6015174D02*
X1405658Y-6005650D01*
X1405658Y-6005650D02*
X1434229Y-6005650D01*
X1434229Y-6005650D02*
X1453277Y-6015174D01*
X1453277Y-6015174D02*
X1462801Y-6034222D01*
X1462801Y-6034222D02*
X1462801Y-6138984D01*
X1462801Y-6034222D02*
X1472324Y-6015174D01*
X1472324Y-6015174D02*
X1491372Y-6005650D01*
X1491372Y-6005650D02*
X1519943Y-6005650D01*
X1519943Y-6005650D02*
X1538991Y-6015174D01*
X1538991Y-6015174D02*
X1548515Y-6034222D01*
X1548515Y-6034222D02*
X1548515Y-6138984D01*
X1938991Y-5929460D02*
X1767563Y-6186603D01*
X2196134Y-5938984D02*
X2215182Y-5938984D01*
X2215182Y-5938984D02*
X2234229Y-5948508D01*
X2234229Y-5948508D02*
X2243753Y-5958031D01*
X2243753Y-5958031D02*
X2253277Y-5977079D01*
X2253277Y-5977079D02*
X2262801Y-6015174D01*
X2262801Y-6015174D02*
X2262801Y-6062793D01*
X2262801Y-6062793D02*
X2253277Y-6100888D01*
X2253277Y-6100888D02*
X2243753Y-6119936D01*
X2243753Y-6119936D02*
X2234229Y-6129460D01*
X2234229Y-6129460D02*
X2215182Y-6138984D01*
X2215182Y-6138984D02*
X2196134Y-6138984D01*
X2196134Y-6138984D02*
X2177087Y-6129460D01*
X2177087Y-6129460D02*
X2167563Y-6119936D01*
X2167563Y-6119936D02*
X2158039Y-6100888D01*
X2158039Y-6100888D02*
X2148515Y-6062793D01*
X2148515Y-6062793D02*
X2148515Y-6015174D01*
X2148515Y-6015174D02*
X2158039Y-5977079D01*
X2158039Y-5977079D02*
X2167563Y-5958031D01*
X2167563Y-5958031D02*
X2177087Y-5948508D01*
X2177087Y-5948508D02*
X2196134Y-5938984D01*
X2348515Y-6119936D02*
X2358039Y-6129460D01*
X2358039Y-6129460D02*
X2348515Y-6138984D01*
X2348515Y-6138984D02*
X2338991Y-6129460D01*
X2338991Y-6129460D02*
X2348515Y-6119936D01*
X2348515Y-6119936D02*
X2348515Y-6138984D01*
X2481848Y-5938984D02*
X2500896Y-5938984D01*
X2500896Y-5938984D02*
X2519944Y-5948508D01*
X2519944Y-5948508D02*
X2529468Y-5958031D01*
X2529468Y-5958031D02*
X2538991Y-5977079D01*
X2538991Y-5977079D02*
X2548515Y-6015174D01*
X2548515Y-6015174D02*
X2548515Y-6062793D01*
X2548515Y-6062793D02*
X2538991Y-6100888D01*
X2538991Y-6100888D02*
X2529468Y-6119936D01*
X2529468Y-6119936D02*
X2519944Y-6129460D01*
X2519944Y-6129460D02*
X2500896Y-6138984D01*
X2500896Y-6138984D02*
X2481848Y-6138984D01*
X2481848Y-6138984D02*
X2462801Y-6129460D01*
X2462801Y-6129460D02*
X2453277Y-6119936D01*
X2453277Y-6119936D02*
X2443753Y-6100888D01*
X2443753Y-6100888D02*
X2434229Y-6062793D01*
X2434229Y-6062793D02*
X2434229Y-6015174D01*
X2434229Y-6015174D02*
X2443753Y-5977079D01*
X2443753Y-5977079D02*
X2453277Y-5958031D01*
X2453277Y-5958031D02*
X2462801Y-5948508D01*
X2462801Y-5948508D02*
X2481848Y-5938984D01*
X2615182Y-5938984D02*
X2738991Y-5938984D01*
X2738991Y-5938984D02*
X2672325Y-6015174D01*
X2672325Y-6015174D02*
X2700896Y-6015174D01*
X2700896Y-6015174D02*
X2719944Y-6024698D01*
X2719944Y-6024698D02*
X2729468Y-6034222D01*
X2729468Y-6034222D02*
X2738991Y-6053269D01*
X2738991Y-6053269D02*
X2738991Y-6100888D01*
X2738991Y-6100888D02*
X2729468Y-6119936D01*
X2729468Y-6119936D02*
X2719944Y-6129460D01*
X2719944Y-6129460D02*
X2700896Y-6138984D01*
X2700896Y-6138984D02*
X2643753Y-6138984D01*
X2643753Y-6138984D02*
X2624706Y-6129460D01*
X2624706Y-6129460D02*
X2615182Y-6119936D01*
X2834229Y-6138984D02*
X2872325Y-6138984D01*
X2872325Y-6138984D02*
X2891372Y-6129460D01*
X2891372Y-6129460D02*
X2900896Y-6119936D01*
X2900896Y-6119936D02*
X2919944Y-6091365D01*
X2919944Y-6091365D02*
X2929467Y-6053269D01*
X2929467Y-6053269D02*
X2929467Y-5977079D01*
X2929467Y-5977079D02*
X2919944Y-5958031D01*
X2919944Y-5958031D02*
X2910420Y-5948508D01*
X2910420Y-5948508D02*
X2891372Y-5938984D01*
X2891372Y-5938984D02*
X2853277Y-5938984D01*
X2853277Y-5938984D02*
X2834229Y-5948508D01*
X2834229Y-5948508D02*
X2824706Y-5958031D01*
X2824706Y-5958031D02*
X2815182Y-5977079D01*
X2815182Y-5977079D02*
X2815182Y-6024698D01*
X2815182Y-6024698D02*
X2824706Y-6043746D01*
X2824706Y-6043746D02*
X2834229Y-6053269D01*
X2834229Y-6053269D02*
X2853277Y-6062793D01*
X2853277Y-6062793D02*
X2891372Y-6062793D01*
X2891372Y-6062793D02*
X2910420Y-6053269D01*
X2910420Y-6053269D02*
X2919944Y-6043746D01*
X2919944Y-6043746D02*
X2929467Y-6024698D01*
X3100896Y-6005650D02*
X3100896Y-6138984D01*
X3053277Y-5929460D02*
X3005658Y-6072317D01*
X3005658Y-6072317D02*
X3129467Y-6072317D01*
X3196134Y-5938984D02*
X3196134Y-5977079D01*
X3272325Y-5938984D02*
X3272325Y-5977079D01*
X3567563Y-6215174D02*
X3558039Y-6205650D01*
X3558039Y-6205650D02*
X3538991Y-6177079D01*
X3538991Y-6177079D02*
X3529468Y-6158031D01*
X3529468Y-6158031D02*
X3519944Y-6129460D01*
X3519944Y-6129460D02*
X3510420Y-6081841D01*
X3510420Y-6081841D02*
X3510420Y-6043746D01*
X3510420Y-6043746D02*
X3519944Y-5996127D01*
X3519944Y-5996127D02*
X3529468Y-5967555D01*
X3529468Y-5967555D02*
X3538991Y-5948508D01*
X3538991Y-5948508D02*
X3558039Y-5919936D01*
X3558039Y-5919936D02*
X3567563Y-5910412D01*
X3634229Y-5958031D02*
X3643753Y-5948508D01*
X3643753Y-5948508D02*
X3662801Y-5938984D01*
X3662801Y-5938984D02*
X3710420Y-5938984D01*
X3710420Y-5938984D02*
X3729468Y-5948508D01*
X3729468Y-5948508D02*
X3738991Y-5958031D01*
X3738991Y-5958031D02*
X3748515Y-5977079D01*
X3748515Y-5977079D02*
X3748515Y-5996127D01*
X3748515Y-5996127D02*
X3738991Y-6024698D01*
X3738991Y-6024698D02*
X3624706Y-6138984D01*
X3624706Y-6138984D02*
X3748515Y-6138984D01*
X3986610Y-6138984D02*
X3986610Y-5938984D01*
X4072325Y-6138984D02*
X4072325Y-6034222D01*
X4072325Y-6034222D02*
X4062801Y-6015174D01*
X4062801Y-6015174D02*
X4043753Y-6005650D01*
X4043753Y-6005650D02*
X4015182Y-6005650D01*
X4015182Y-6005650D02*
X3996134Y-6015174D01*
X3996134Y-6015174D02*
X3986610Y-6024698D01*
X4196134Y-6138984D02*
X4177087Y-6129460D01*
X4177087Y-6129460D02*
X4167563Y-6119936D01*
X4167563Y-6119936D02*
X4158039Y-6100888D01*
X4158039Y-6100888D02*
X4158039Y-6043746D01*
X4158039Y-6043746D02*
X4167563Y-6024698D01*
X4167563Y-6024698D02*
X4177087Y-6015174D01*
X4177087Y-6015174D02*
X4196134Y-6005650D01*
X4196134Y-6005650D02*
X4224706Y-6005650D01*
X4224706Y-6005650D02*
X4243753Y-6015174D01*
X4243753Y-6015174D02*
X4253277Y-6024698D01*
X4253277Y-6024698D02*
X4262801Y-6043746D01*
X4262801Y-6043746D02*
X4262801Y-6100888D01*
X4262801Y-6100888D02*
X4253277Y-6119936D01*
X4253277Y-6119936D02*
X4243753Y-6129460D01*
X4243753Y-6129460D02*
X4224706Y-6138984D01*
X4224706Y-6138984D02*
X4196134Y-6138984D01*
X4377087Y-6138984D02*
X4358039Y-6129460D01*
X4358039Y-6129460D02*
X4348515Y-6110412D01*
X4348515Y-6110412D02*
X4348515Y-5938984D01*
X4529468Y-6129460D02*
X4510420Y-6138984D01*
X4510420Y-6138984D02*
X4472325Y-6138984D01*
X4472325Y-6138984D02*
X4453277Y-6129460D01*
X4453277Y-6129460D02*
X4443753Y-6110412D01*
X4443753Y-6110412D02*
X4443753Y-6034222D01*
X4443753Y-6034222D02*
X4453277Y-6015174D01*
X4453277Y-6015174D02*
X4472325Y-6005650D01*
X4472325Y-6005650D02*
X4510420Y-6005650D01*
X4510420Y-6005650D02*
X4529468Y-6015174D01*
X4529468Y-6015174D02*
X4538992Y-6034222D01*
X4538992Y-6034222D02*
X4538992Y-6053269D01*
X4538992Y-6053269D02*
X4443753Y-6072317D01*
X4615182Y-6129460D02*
X4634230Y-6138984D01*
X4634230Y-6138984D02*
X4672325Y-6138984D01*
X4672325Y-6138984D02*
X4691373Y-6129460D01*
X4691373Y-6129460D02*
X4700896Y-6110412D01*
X4700896Y-6110412D02*
X4700896Y-6100888D01*
X4700896Y-6100888D02*
X4691373Y-6081841D01*
X4691373Y-6081841D02*
X4672325Y-6072317D01*
X4672325Y-6072317D02*
X4643753Y-6072317D01*
X4643753Y-6072317D02*
X4624706Y-6062793D01*
X4624706Y-6062793D02*
X4615182Y-6043746D01*
X4615182Y-6043746D02*
X4615182Y-6034222D01*
X4615182Y-6034222D02*
X4624706Y-6015174D01*
X4624706Y-6015174D02*
X4643753Y-6005650D01*
X4643753Y-6005650D02*
X4672325Y-6005650D01*
X4672325Y-6005650D02*
X4691373Y-6015174D01*
X4767563Y-6215174D02*
X4777087Y-6205650D01*
X4777087Y-6205650D02*
X4796134Y-6177079D01*
X4796134Y-6177079D02*
X4805658Y-6158031D01*
X4805658Y-6158031D02*
X4815182Y-6129460D01*
X4815182Y-6129460D02*
X4824706Y-6081841D01*
X4824706Y-6081841D02*
X4824706Y-6043746D01*
X4824706Y-6043746D02*
X4815182Y-5996127D01*
X4815182Y-5996127D02*
X4805658Y-5967555D01*
X4805658Y-5967555D02*
X4796134Y-5948508D01*
X4796134Y-5948508D02*
X4777087Y-5919936D01*
X4777087Y-5919936D02*
X4767563Y-5910412D01*
D13*
X-7500Y-6311500D02*
G75*
G03*
X-127500Y-6311500I-60000J0D01*
G01*
X-127500Y-6311500D02*
G75*
G03*
X-7500Y-6311500I60000J0D01*
G01*
D11*
X358039Y-6402984D02*
X243753Y-6402984D01*
X300896Y-6402984D02*
X300896Y-6202984D01*
X300896Y-6202984D02*
X281848Y-6231555D01*
X281848Y-6231555D02*
X262801Y-6250603D01*
X262801Y-6250603D02*
X243753Y-6260127D01*
X443753Y-6383936D02*
X453277Y-6393460D01*
X453277Y-6393460D02*
X443753Y-6402984D01*
X443753Y-6402984D02*
X434229Y-6393460D01*
X434229Y-6393460D02*
X443753Y-6383936D01*
X443753Y-6383936D02*
X443753Y-6402984D01*
X529467Y-6222031D02*
X538991Y-6212508D01*
X538991Y-6212508D02*
X558039Y-6202984D01*
X558039Y-6202984D02*
X605658Y-6202984D01*
X605658Y-6202984D02*
X624705Y-6212508D01*
X624705Y-6212508D02*
X634229Y-6222031D01*
X634229Y-6222031D02*
X643753Y-6241079D01*
X643753Y-6241079D02*
X643753Y-6260127D01*
X643753Y-6260127D02*
X634229Y-6288698D01*
X634229Y-6288698D02*
X519943Y-6402984D01*
X519943Y-6402984D02*
X643753Y-6402984D01*
X767562Y-6202984D02*
X786610Y-6202984D01*
X786610Y-6202984D02*
X805658Y-6212508D01*
X805658Y-6212508D02*
X815182Y-6222031D01*
X815182Y-6222031D02*
X824705Y-6241079D01*
X824705Y-6241079D02*
X834229Y-6279174D01*
X834229Y-6279174D02*
X834229Y-6326793D01*
X834229Y-6326793D02*
X824705Y-6364888D01*
X824705Y-6364888D02*
X815182Y-6383936D01*
X815182Y-6383936D02*
X805658Y-6393460D01*
X805658Y-6393460D02*
X786610Y-6402984D01*
X786610Y-6402984D02*
X767562Y-6402984D01*
X767562Y-6402984D02*
X748515Y-6393460D01*
X748515Y-6393460D02*
X738991Y-6383936D01*
X738991Y-6383936D02*
X729467Y-6364888D01*
X729467Y-6364888D02*
X719943Y-6326793D01*
X719943Y-6326793D02*
X719943Y-6279174D01*
X719943Y-6279174D02*
X729467Y-6241079D01*
X729467Y-6241079D02*
X738991Y-6222031D01*
X738991Y-6222031D02*
X748515Y-6212508D01*
X748515Y-6212508D02*
X767562Y-6202984D01*
X958039Y-6202984D02*
X977086Y-6202984D01*
X977086Y-6202984D02*
X996134Y-6212508D01*
X996134Y-6212508D02*
X1005658Y-6222031D01*
X1005658Y-6222031D02*
X1015182Y-6241079D01*
X1015182Y-6241079D02*
X1024705Y-6279174D01*
X1024705Y-6279174D02*
X1024705Y-6326793D01*
X1024705Y-6326793D02*
X1015182Y-6364888D01*
X1015182Y-6364888D02*
X1005658Y-6383936D01*
X1005658Y-6383936D02*
X996134Y-6393460D01*
X996134Y-6393460D02*
X977086Y-6402984D01*
X977086Y-6402984D02*
X958039Y-6402984D01*
X958039Y-6402984D02*
X938991Y-6393460D01*
X938991Y-6393460D02*
X929467Y-6383936D01*
X929467Y-6383936D02*
X919943Y-6364888D01*
X919943Y-6364888D02*
X910420Y-6326793D01*
X910420Y-6326793D02*
X910420Y-6279174D01*
X910420Y-6279174D02*
X919943Y-6241079D01*
X919943Y-6241079D02*
X929467Y-6222031D01*
X929467Y-6222031D02*
X938991Y-6212508D01*
X938991Y-6212508D02*
X958039Y-6202984D01*
X1110420Y-6402984D02*
X1110420Y-6269650D01*
X1110420Y-6288698D02*
X1119944Y-6279174D01*
X1119944Y-6279174D02*
X1138991Y-6269650D01*
X1138991Y-6269650D02*
X1167563Y-6269650D01*
X1167563Y-6269650D02*
X1186610Y-6279174D01*
X1186610Y-6279174D02*
X1196134Y-6298222D01*
X1196134Y-6298222D02*
X1196134Y-6402984D01*
X1196134Y-6298222D02*
X1205658Y-6279174D01*
X1205658Y-6279174D02*
X1224705Y-6269650D01*
X1224705Y-6269650D02*
X1253277Y-6269650D01*
X1253277Y-6269650D02*
X1272325Y-6279174D01*
X1272325Y-6279174D02*
X1281848Y-6298222D01*
X1281848Y-6298222D02*
X1281848Y-6402984D01*
X1377086Y-6402984D02*
X1377086Y-6269650D01*
X1377086Y-6288698D02*
X1386610Y-6279174D01*
X1386610Y-6279174D02*
X1405658Y-6269650D01*
X1405658Y-6269650D02*
X1434229Y-6269650D01*
X1434229Y-6269650D02*
X1453277Y-6279174D01*
X1453277Y-6279174D02*
X1462801Y-6298222D01*
X1462801Y-6298222D02*
X1462801Y-6402984D01*
X1462801Y-6298222D02*
X1472324Y-6279174D01*
X1472324Y-6279174D02*
X1491372Y-6269650D01*
X1491372Y-6269650D02*
X1519943Y-6269650D01*
X1519943Y-6269650D02*
X1538991Y-6279174D01*
X1538991Y-6279174D02*
X1548515Y-6298222D01*
X1548515Y-6298222D02*
X1548515Y-6402984D01*
X1938991Y-6193460D02*
X1767563Y-6450603D01*
X2196134Y-6202984D02*
X2215182Y-6202984D01*
X2215182Y-6202984D02*
X2234229Y-6212508D01*
X2234229Y-6212508D02*
X2243753Y-6222031D01*
X2243753Y-6222031D02*
X2253277Y-6241079D01*
X2253277Y-6241079D02*
X2262801Y-6279174D01*
X2262801Y-6279174D02*
X2262801Y-6326793D01*
X2262801Y-6326793D02*
X2253277Y-6364888D01*
X2253277Y-6364888D02*
X2243753Y-6383936D01*
X2243753Y-6383936D02*
X2234229Y-6393460D01*
X2234229Y-6393460D02*
X2215182Y-6402984D01*
X2215182Y-6402984D02*
X2196134Y-6402984D01*
X2196134Y-6402984D02*
X2177087Y-6393460D01*
X2177087Y-6393460D02*
X2167563Y-6383936D01*
X2167563Y-6383936D02*
X2158039Y-6364888D01*
X2158039Y-6364888D02*
X2148515Y-6326793D01*
X2148515Y-6326793D02*
X2148515Y-6279174D01*
X2148515Y-6279174D02*
X2158039Y-6241079D01*
X2158039Y-6241079D02*
X2167563Y-6222031D01*
X2167563Y-6222031D02*
X2177087Y-6212508D01*
X2177087Y-6212508D02*
X2196134Y-6202984D01*
X2348515Y-6383936D02*
X2358039Y-6393460D01*
X2358039Y-6393460D02*
X2348515Y-6402984D01*
X2348515Y-6402984D02*
X2338991Y-6393460D01*
X2338991Y-6393460D02*
X2348515Y-6383936D01*
X2348515Y-6383936D02*
X2348515Y-6402984D01*
X2481848Y-6202984D02*
X2500896Y-6202984D01*
X2500896Y-6202984D02*
X2519944Y-6212508D01*
X2519944Y-6212508D02*
X2529468Y-6222031D01*
X2529468Y-6222031D02*
X2538991Y-6241079D01*
X2538991Y-6241079D02*
X2548515Y-6279174D01*
X2548515Y-6279174D02*
X2548515Y-6326793D01*
X2548515Y-6326793D02*
X2538991Y-6364888D01*
X2538991Y-6364888D02*
X2529468Y-6383936D01*
X2529468Y-6383936D02*
X2519944Y-6393460D01*
X2519944Y-6393460D02*
X2500896Y-6402984D01*
X2500896Y-6402984D02*
X2481848Y-6402984D01*
X2481848Y-6402984D02*
X2462801Y-6393460D01*
X2462801Y-6393460D02*
X2453277Y-6383936D01*
X2453277Y-6383936D02*
X2443753Y-6364888D01*
X2443753Y-6364888D02*
X2434229Y-6326793D01*
X2434229Y-6326793D02*
X2434229Y-6279174D01*
X2434229Y-6279174D02*
X2443753Y-6241079D01*
X2443753Y-6241079D02*
X2453277Y-6222031D01*
X2453277Y-6222031D02*
X2462801Y-6212508D01*
X2462801Y-6212508D02*
X2481848Y-6202984D01*
X2719944Y-6269650D02*
X2719944Y-6402984D01*
X2672325Y-6193460D02*
X2624706Y-6336317D01*
X2624706Y-6336317D02*
X2748515Y-6336317D01*
X2805658Y-6202984D02*
X2938991Y-6202984D01*
X2938991Y-6202984D02*
X2853277Y-6402984D01*
X3005658Y-6222031D02*
X3015182Y-6212508D01*
X3015182Y-6212508D02*
X3034229Y-6202984D01*
X3034229Y-6202984D02*
X3081848Y-6202984D01*
X3081848Y-6202984D02*
X3100896Y-6212508D01*
X3100896Y-6212508D02*
X3110420Y-6222031D01*
X3110420Y-6222031D02*
X3119944Y-6241079D01*
X3119944Y-6241079D02*
X3119944Y-6260127D01*
X3119944Y-6260127D02*
X3110420Y-6288698D01*
X3110420Y-6288698D02*
X2996134Y-6402984D01*
X2996134Y-6402984D02*
X3119944Y-6402984D01*
X3196134Y-6202984D02*
X3196134Y-6241079D01*
X3272325Y-6202984D02*
X3272325Y-6241079D01*
X3567563Y-6479174D02*
X3558039Y-6469650D01*
X3558039Y-6469650D02*
X3538991Y-6441079D01*
X3538991Y-6441079D02*
X3529468Y-6422031D01*
X3529468Y-6422031D02*
X3519944Y-6393460D01*
X3519944Y-6393460D02*
X3510420Y-6345841D01*
X3510420Y-6345841D02*
X3510420Y-6307746D01*
X3510420Y-6307746D02*
X3519944Y-6260127D01*
X3519944Y-6260127D02*
X3529468Y-6231555D01*
X3529468Y-6231555D02*
X3538991Y-6212508D01*
X3538991Y-6212508D02*
X3558039Y-6183936D01*
X3558039Y-6183936D02*
X3567563Y-6174412D01*
X3748515Y-6402984D02*
X3634229Y-6402984D01*
X3691372Y-6402984D02*
X3691372Y-6202984D01*
X3691372Y-6202984D02*
X3672325Y-6231555D01*
X3672325Y-6231555D02*
X3653277Y-6250603D01*
X3653277Y-6250603D02*
X3634229Y-6260127D01*
X3824706Y-6222031D02*
X3834229Y-6212508D01*
X3834229Y-6212508D02*
X3853277Y-6202984D01*
X3853277Y-6202984D02*
X3900896Y-6202984D01*
X3900896Y-6202984D02*
X3919944Y-6212508D01*
X3919944Y-6212508D02*
X3929468Y-6222031D01*
X3929468Y-6222031D02*
X3938991Y-6241079D01*
X3938991Y-6241079D02*
X3938991Y-6260127D01*
X3938991Y-6260127D02*
X3929468Y-6288698D01*
X3929468Y-6288698D02*
X3815182Y-6402984D01*
X3815182Y-6402984D02*
X3938991Y-6402984D01*
X4177087Y-6402984D02*
X4177087Y-6202984D01*
X4262801Y-6402984D02*
X4262801Y-6298222D01*
X4262801Y-6298222D02*
X4253277Y-6279174D01*
X4253277Y-6279174D02*
X4234230Y-6269650D01*
X4234230Y-6269650D02*
X4205658Y-6269650D01*
X4205658Y-6269650D02*
X4186610Y-6279174D01*
X4186610Y-6279174D02*
X4177087Y-6288698D01*
X4386611Y-6402984D02*
X4367563Y-6393460D01*
X4367563Y-6393460D02*
X4358039Y-6383936D01*
X4358039Y-6383936D02*
X4348515Y-6364888D01*
X4348515Y-6364888D02*
X4348515Y-6307746D01*
X4348515Y-6307746D02*
X4358039Y-6288698D01*
X4358039Y-6288698D02*
X4367563Y-6279174D01*
X4367563Y-6279174D02*
X4386611Y-6269650D01*
X4386611Y-6269650D02*
X4415182Y-6269650D01*
X4415182Y-6269650D02*
X4434230Y-6279174D01*
X4434230Y-6279174D02*
X4443753Y-6288698D01*
X4443753Y-6288698D02*
X4453277Y-6307746D01*
X4453277Y-6307746D02*
X4453277Y-6364888D01*
X4453277Y-6364888D02*
X4443753Y-6383936D01*
X4443753Y-6383936D02*
X4434230Y-6393460D01*
X4434230Y-6393460D02*
X4415182Y-6402984D01*
X4415182Y-6402984D02*
X4386611Y-6402984D01*
X4567563Y-6402984D02*
X4548515Y-6393460D01*
X4548515Y-6393460D02*
X4538992Y-6374412D01*
X4538992Y-6374412D02*
X4538992Y-6202984D01*
X4719944Y-6393460D02*
X4700896Y-6402984D01*
X4700896Y-6402984D02*
X4662801Y-6402984D01*
X4662801Y-6402984D02*
X4643753Y-6393460D01*
X4643753Y-6393460D02*
X4634230Y-6374412D01*
X4634230Y-6374412D02*
X4634230Y-6298222D01*
X4634230Y-6298222D02*
X4643753Y-6279174D01*
X4643753Y-6279174D02*
X4662801Y-6269650D01*
X4662801Y-6269650D02*
X4700896Y-6269650D01*
X4700896Y-6269650D02*
X4719944Y-6279174D01*
X4719944Y-6279174D02*
X4729468Y-6298222D01*
X4729468Y-6298222D02*
X4729468Y-6317269D01*
X4729468Y-6317269D02*
X4634230Y-6336317D01*
X4805658Y-6393460D02*
X4824706Y-6402984D01*
X4824706Y-6402984D02*
X4862801Y-6402984D01*
X4862801Y-6402984D02*
X4881849Y-6393460D01*
X4881849Y-6393460D02*
X4891373Y-6374412D01*
X4891373Y-6374412D02*
X4891373Y-6364888D01*
X4891373Y-6364888D02*
X4881849Y-6345841D01*
X4881849Y-6345841D02*
X4862801Y-6336317D01*
X4862801Y-6336317D02*
X4834230Y-6336317D01*
X4834230Y-6336317D02*
X4815182Y-6326793D01*
X4815182Y-6326793D02*
X4805658Y-6307746D01*
X4805658Y-6307746D02*
X4805658Y-6298222D01*
X4805658Y-6298222D02*
X4815182Y-6279174D01*
X4815182Y-6279174D02*
X4834230Y-6269650D01*
X4834230Y-6269650D02*
X4862801Y-6269650D01*
X4862801Y-6269650D02*
X4881849Y-6279174D01*
X4958039Y-6479174D02*
X4967563Y-6469650D01*
X4967563Y-6469650D02*
X4986611Y-6441079D01*
X4986611Y-6441079D02*
X4996134Y-6422031D01*
X4996134Y-6422031D02*
X5005658Y-6393460D01*
X5005658Y-6393460D02*
X5015182Y-6345841D01*
X5015182Y-6345841D02*
X5015182Y-6307746D01*
X5015182Y-6307746D02*
X5005658Y-6260127D01*
X5005658Y-6260127D02*
X4996134Y-6231555D01*
X4996134Y-6231555D02*
X4986611Y-6212508D01*
X4986611Y-6212508D02*
X4967563Y-6183936D01*
X4967563Y-6183936D02*
X4958039Y-6174412D01*
D14*
X-87500Y-6495500D02*
X-87500Y-6655500D01*
X-167500Y-6575500D02*
X-7500Y-6575500D01*
D11*
X358039Y-6666984D02*
X243753Y-6666984D01*
X300896Y-6666984D02*
X300896Y-6466984D01*
X300896Y-6466984D02*
X281848Y-6495555D01*
X281848Y-6495555D02*
X262801Y-6514603D01*
X262801Y-6514603D02*
X243753Y-6524127D01*
X443753Y-6647936D02*
X453277Y-6657460D01*
X453277Y-6657460D02*
X443753Y-6666984D01*
X443753Y-6666984D02*
X434229Y-6657460D01*
X434229Y-6657460D02*
X443753Y-6647936D01*
X443753Y-6647936D02*
X443753Y-6666984D01*
X624705Y-6466984D02*
X586610Y-6466984D01*
X586610Y-6466984D02*
X567563Y-6476508D01*
X567563Y-6476508D02*
X558039Y-6486031D01*
X558039Y-6486031D02*
X538991Y-6514603D01*
X538991Y-6514603D02*
X529467Y-6552698D01*
X529467Y-6552698D02*
X529467Y-6628888D01*
X529467Y-6628888D02*
X538991Y-6647936D01*
X538991Y-6647936D02*
X548515Y-6657460D01*
X548515Y-6657460D02*
X567563Y-6666984D01*
X567563Y-6666984D02*
X605658Y-6666984D01*
X605658Y-6666984D02*
X624705Y-6657460D01*
X624705Y-6657460D02*
X634229Y-6647936D01*
X634229Y-6647936D02*
X643753Y-6628888D01*
X643753Y-6628888D02*
X643753Y-6581269D01*
X643753Y-6581269D02*
X634229Y-6562222D01*
X634229Y-6562222D02*
X624705Y-6552698D01*
X624705Y-6552698D02*
X605658Y-6543174D01*
X605658Y-6543174D02*
X567563Y-6543174D01*
X567563Y-6543174D02*
X548515Y-6552698D01*
X548515Y-6552698D02*
X538991Y-6562222D01*
X538991Y-6562222D02*
X529467Y-6581269D01*
X767562Y-6466984D02*
X786610Y-6466984D01*
X786610Y-6466984D02*
X805658Y-6476508D01*
X805658Y-6476508D02*
X815182Y-6486031D01*
X815182Y-6486031D02*
X824705Y-6505079D01*
X824705Y-6505079D02*
X834229Y-6543174D01*
X834229Y-6543174D02*
X834229Y-6590793D01*
X834229Y-6590793D02*
X824705Y-6628888D01*
X824705Y-6628888D02*
X815182Y-6647936D01*
X815182Y-6647936D02*
X805658Y-6657460D01*
X805658Y-6657460D02*
X786610Y-6666984D01*
X786610Y-6666984D02*
X767562Y-6666984D01*
X767562Y-6666984D02*
X748515Y-6657460D01*
X748515Y-6657460D02*
X738991Y-6647936D01*
X738991Y-6647936D02*
X729467Y-6628888D01*
X729467Y-6628888D02*
X719943Y-6590793D01*
X719943Y-6590793D02*
X719943Y-6543174D01*
X719943Y-6543174D02*
X729467Y-6505079D01*
X729467Y-6505079D02*
X738991Y-6486031D01*
X738991Y-6486031D02*
X748515Y-6476508D01*
X748515Y-6476508D02*
X767562Y-6466984D01*
X958039Y-6466984D02*
X977086Y-6466984D01*
X977086Y-6466984D02*
X996134Y-6476508D01*
X996134Y-6476508D02*
X1005658Y-6486031D01*
X1005658Y-6486031D02*
X1015182Y-6505079D01*
X1015182Y-6505079D02*
X1024705Y-6543174D01*
X1024705Y-6543174D02*
X1024705Y-6590793D01*
X1024705Y-6590793D02*
X1015182Y-6628888D01*
X1015182Y-6628888D02*
X1005658Y-6647936D01*
X1005658Y-6647936D02*
X996134Y-6657460D01*
X996134Y-6657460D02*
X977086Y-6666984D01*
X977086Y-6666984D02*
X958039Y-6666984D01*
X958039Y-6666984D02*
X938991Y-6657460D01*
X938991Y-6657460D02*
X929467Y-6647936D01*
X929467Y-6647936D02*
X919943Y-6628888D01*
X919943Y-6628888D02*
X910420Y-6590793D01*
X910420Y-6590793D02*
X910420Y-6543174D01*
X910420Y-6543174D02*
X919943Y-6505079D01*
X919943Y-6505079D02*
X929467Y-6486031D01*
X929467Y-6486031D02*
X938991Y-6476508D01*
X938991Y-6476508D02*
X958039Y-6466984D01*
X1110420Y-6666984D02*
X1110420Y-6533650D01*
X1110420Y-6552698D02*
X1119944Y-6543174D01*
X1119944Y-6543174D02*
X1138991Y-6533650D01*
X1138991Y-6533650D02*
X1167563Y-6533650D01*
X1167563Y-6533650D02*
X1186610Y-6543174D01*
X1186610Y-6543174D02*
X1196134Y-6562222D01*
X1196134Y-6562222D02*
X1196134Y-6666984D01*
X1196134Y-6562222D02*
X1205658Y-6543174D01*
X1205658Y-6543174D02*
X1224705Y-6533650D01*
X1224705Y-6533650D02*
X1253277Y-6533650D01*
X1253277Y-6533650D02*
X1272325Y-6543174D01*
X1272325Y-6543174D02*
X1281848Y-6562222D01*
X1281848Y-6562222D02*
X1281848Y-6666984D01*
X1377086Y-6666984D02*
X1377086Y-6533650D01*
X1377086Y-6552698D02*
X1386610Y-6543174D01*
X1386610Y-6543174D02*
X1405658Y-6533650D01*
X1405658Y-6533650D02*
X1434229Y-6533650D01*
X1434229Y-6533650D02*
X1453277Y-6543174D01*
X1453277Y-6543174D02*
X1462801Y-6562222D01*
X1462801Y-6562222D02*
X1462801Y-6666984D01*
X1462801Y-6562222D02*
X1472324Y-6543174D01*
X1472324Y-6543174D02*
X1491372Y-6533650D01*
X1491372Y-6533650D02*
X1519943Y-6533650D01*
X1519943Y-6533650D02*
X1538991Y-6543174D01*
X1538991Y-6543174D02*
X1548515Y-6562222D01*
X1548515Y-6562222D02*
X1548515Y-6666984D01*
X1938991Y-6457460D02*
X1767563Y-6714603D01*
X2196134Y-6466984D02*
X2215182Y-6466984D01*
X2215182Y-6466984D02*
X2234229Y-6476508D01*
X2234229Y-6476508D02*
X2243753Y-6486031D01*
X2243753Y-6486031D02*
X2253277Y-6505079D01*
X2253277Y-6505079D02*
X2262801Y-6543174D01*
X2262801Y-6543174D02*
X2262801Y-6590793D01*
X2262801Y-6590793D02*
X2253277Y-6628888D01*
X2253277Y-6628888D02*
X2243753Y-6647936D01*
X2243753Y-6647936D02*
X2234229Y-6657460D01*
X2234229Y-6657460D02*
X2215182Y-6666984D01*
X2215182Y-6666984D02*
X2196134Y-6666984D01*
X2196134Y-6666984D02*
X2177087Y-6657460D01*
X2177087Y-6657460D02*
X2167563Y-6647936D01*
X2167563Y-6647936D02*
X2158039Y-6628888D01*
X2158039Y-6628888D02*
X2148515Y-6590793D01*
X2148515Y-6590793D02*
X2148515Y-6543174D01*
X2148515Y-6543174D02*
X2158039Y-6505079D01*
X2158039Y-6505079D02*
X2167563Y-6486031D01*
X2167563Y-6486031D02*
X2177087Y-6476508D01*
X2177087Y-6476508D02*
X2196134Y-6466984D01*
X2348515Y-6647936D02*
X2358039Y-6657460D01*
X2358039Y-6657460D02*
X2348515Y-6666984D01*
X2348515Y-6666984D02*
X2338991Y-6657460D01*
X2338991Y-6657460D02*
X2348515Y-6647936D01*
X2348515Y-6647936D02*
X2348515Y-6666984D01*
X2481848Y-6466984D02*
X2500896Y-6466984D01*
X2500896Y-6466984D02*
X2519944Y-6476508D01*
X2519944Y-6476508D02*
X2529468Y-6486031D01*
X2529468Y-6486031D02*
X2538991Y-6505079D01*
X2538991Y-6505079D02*
X2548515Y-6543174D01*
X2548515Y-6543174D02*
X2548515Y-6590793D01*
X2548515Y-6590793D02*
X2538991Y-6628888D01*
X2538991Y-6628888D02*
X2529468Y-6647936D01*
X2529468Y-6647936D02*
X2519944Y-6657460D01*
X2519944Y-6657460D02*
X2500896Y-6666984D01*
X2500896Y-6666984D02*
X2481848Y-6666984D01*
X2481848Y-6666984D02*
X2462801Y-6657460D01*
X2462801Y-6657460D02*
X2453277Y-6647936D01*
X2453277Y-6647936D02*
X2443753Y-6628888D01*
X2443753Y-6628888D02*
X2434229Y-6590793D01*
X2434229Y-6590793D02*
X2434229Y-6543174D01*
X2434229Y-6543174D02*
X2443753Y-6505079D01*
X2443753Y-6505079D02*
X2453277Y-6486031D01*
X2453277Y-6486031D02*
X2462801Y-6476508D01*
X2462801Y-6476508D02*
X2481848Y-6466984D01*
X2719944Y-6466984D02*
X2681848Y-6466984D01*
X2681848Y-6466984D02*
X2662801Y-6476508D01*
X2662801Y-6476508D02*
X2653277Y-6486031D01*
X2653277Y-6486031D02*
X2634229Y-6514603D01*
X2634229Y-6514603D02*
X2624706Y-6552698D01*
X2624706Y-6552698D02*
X2624706Y-6628888D01*
X2624706Y-6628888D02*
X2634229Y-6647936D01*
X2634229Y-6647936D02*
X2643753Y-6657460D01*
X2643753Y-6657460D02*
X2662801Y-6666984D01*
X2662801Y-6666984D02*
X2700896Y-6666984D01*
X2700896Y-6666984D02*
X2719944Y-6657460D01*
X2719944Y-6657460D02*
X2729468Y-6647936D01*
X2729468Y-6647936D02*
X2738991Y-6628888D01*
X2738991Y-6628888D02*
X2738991Y-6581269D01*
X2738991Y-6581269D02*
X2729468Y-6562222D01*
X2729468Y-6562222D02*
X2719944Y-6552698D01*
X2719944Y-6552698D02*
X2700896Y-6543174D01*
X2700896Y-6543174D02*
X2662801Y-6543174D01*
X2662801Y-6543174D02*
X2643753Y-6552698D01*
X2643753Y-6552698D02*
X2634229Y-6562222D01*
X2634229Y-6562222D02*
X2624706Y-6581269D01*
X2805658Y-6466984D02*
X2929467Y-6466984D01*
X2929467Y-6466984D02*
X2862801Y-6543174D01*
X2862801Y-6543174D02*
X2891372Y-6543174D01*
X2891372Y-6543174D02*
X2910420Y-6552698D01*
X2910420Y-6552698D02*
X2919944Y-6562222D01*
X2919944Y-6562222D02*
X2929467Y-6581269D01*
X2929467Y-6581269D02*
X2929467Y-6628888D01*
X2929467Y-6628888D02*
X2919944Y-6647936D01*
X2919944Y-6647936D02*
X2910420Y-6657460D01*
X2910420Y-6657460D02*
X2891372Y-6666984D01*
X2891372Y-6666984D02*
X2834229Y-6666984D01*
X2834229Y-6666984D02*
X2815182Y-6657460D01*
X2815182Y-6657460D02*
X2805658Y-6647936D01*
X3053277Y-6466984D02*
X3072325Y-6466984D01*
X3072325Y-6466984D02*
X3091372Y-6476508D01*
X3091372Y-6476508D02*
X3100896Y-6486031D01*
X3100896Y-6486031D02*
X3110420Y-6505079D01*
X3110420Y-6505079D02*
X3119944Y-6543174D01*
X3119944Y-6543174D02*
X3119944Y-6590793D01*
X3119944Y-6590793D02*
X3110420Y-6628888D01*
X3110420Y-6628888D02*
X3100896Y-6647936D01*
X3100896Y-6647936D02*
X3091372Y-6657460D01*
X3091372Y-6657460D02*
X3072325Y-6666984D01*
X3072325Y-6666984D02*
X3053277Y-6666984D01*
X3053277Y-6666984D02*
X3034229Y-6657460D01*
X3034229Y-6657460D02*
X3024706Y-6647936D01*
X3024706Y-6647936D02*
X3015182Y-6628888D01*
X3015182Y-6628888D02*
X3005658Y-6590793D01*
X3005658Y-6590793D02*
X3005658Y-6543174D01*
X3005658Y-6543174D02*
X3015182Y-6505079D01*
X3015182Y-6505079D02*
X3024706Y-6486031D01*
X3024706Y-6486031D02*
X3034229Y-6476508D01*
X3034229Y-6476508D02*
X3053277Y-6466984D01*
X3196134Y-6466984D02*
X3196134Y-6505079D01*
X3272325Y-6466984D02*
X3272325Y-6505079D01*
X3567563Y-6743174D02*
X3558039Y-6733650D01*
X3558039Y-6733650D02*
X3538991Y-6705079D01*
X3538991Y-6705079D02*
X3529468Y-6686031D01*
X3529468Y-6686031D02*
X3519944Y-6657460D01*
X3519944Y-6657460D02*
X3510420Y-6609841D01*
X3510420Y-6609841D02*
X3510420Y-6571746D01*
X3510420Y-6571746D02*
X3519944Y-6524127D01*
X3519944Y-6524127D02*
X3529468Y-6495555D01*
X3529468Y-6495555D02*
X3538991Y-6476508D01*
X3538991Y-6476508D02*
X3558039Y-6447936D01*
X3558039Y-6447936D02*
X3567563Y-6438412D01*
X3729468Y-6466984D02*
X3691372Y-6466984D01*
X3691372Y-6466984D02*
X3672325Y-6476508D01*
X3672325Y-6476508D02*
X3662801Y-6486031D01*
X3662801Y-6486031D02*
X3643753Y-6514603D01*
X3643753Y-6514603D02*
X3634229Y-6552698D01*
X3634229Y-6552698D02*
X3634229Y-6628888D01*
X3634229Y-6628888D02*
X3643753Y-6647936D01*
X3643753Y-6647936D02*
X3653277Y-6657460D01*
X3653277Y-6657460D02*
X3672325Y-6666984D01*
X3672325Y-6666984D02*
X3710420Y-6666984D01*
X3710420Y-6666984D02*
X3729468Y-6657460D01*
X3729468Y-6657460D02*
X3738991Y-6647936D01*
X3738991Y-6647936D02*
X3748515Y-6628888D01*
X3748515Y-6628888D02*
X3748515Y-6581269D01*
X3748515Y-6581269D02*
X3738991Y-6562222D01*
X3738991Y-6562222D02*
X3729468Y-6552698D01*
X3729468Y-6552698D02*
X3710420Y-6543174D01*
X3710420Y-6543174D02*
X3672325Y-6543174D01*
X3672325Y-6543174D02*
X3653277Y-6552698D01*
X3653277Y-6552698D02*
X3643753Y-6562222D01*
X3643753Y-6562222D02*
X3634229Y-6581269D01*
X3986610Y-6666984D02*
X3986610Y-6466984D01*
X4072325Y-6666984D02*
X4072325Y-6562222D01*
X4072325Y-6562222D02*
X4062801Y-6543174D01*
X4062801Y-6543174D02*
X4043753Y-6533650D01*
X4043753Y-6533650D02*
X4015182Y-6533650D01*
X4015182Y-6533650D02*
X3996134Y-6543174D01*
X3996134Y-6543174D02*
X3986610Y-6552698D01*
X4196134Y-6666984D02*
X4177087Y-6657460D01*
X4177087Y-6657460D02*
X4167563Y-6647936D01*
X4167563Y-6647936D02*
X4158039Y-6628888D01*
X4158039Y-6628888D02*
X4158039Y-6571746D01*
X4158039Y-6571746D02*
X4167563Y-6552698D01*
X4167563Y-6552698D02*
X4177087Y-6543174D01*
X4177087Y-6543174D02*
X4196134Y-6533650D01*
X4196134Y-6533650D02*
X4224706Y-6533650D01*
X4224706Y-6533650D02*
X4243753Y-6543174D01*
X4243753Y-6543174D02*
X4253277Y-6552698D01*
X4253277Y-6552698D02*
X4262801Y-6571746D01*
X4262801Y-6571746D02*
X4262801Y-6628888D01*
X4262801Y-6628888D02*
X4253277Y-6647936D01*
X4253277Y-6647936D02*
X4243753Y-6657460D01*
X4243753Y-6657460D02*
X4224706Y-6666984D01*
X4224706Y-6666984D02*
X4196134Y-6666984D01*
X4377087Y-6666984D02*
X4358039Y-6657460D01*
X4358039Y-6657460D02*
X4348515Y-6638412D01*
X4348515Y-6638412D02*
X4348515Y-6466984D01*
X4529468Y-6657460D02*
X4510420Y-6666984D01*
X4510420Y-6666984D02*
X4472325Y-6666984D01*
X4472325Y-6666984D02*
X4453277Y-6657460D01*
X4453277Y-6657460D02*
X4443753Y-6638412D01*
X4443753Y-6638412D02*
X4443753Y-6562222D01*
X4443753Y-6562222D02*
X4453277Y-6543174D01*
X4453277Y-6543174D02*
X4472325Y-6533650D01*
X4472325Y-6533650D02*
X4510420Y-6533650D01*
X4510420Y-6533650D02*
X4529468Y-6543174D01*
X4529468Y-6543174D02*
X4538992Y-6562222D01*
X4538992Y-6562222D02*
X4538992Y-6581269D01*
X4538992Y-6581269D02*
X4443753Y-6600317D01*
X4615182Y-6657460D02*
X4634230Y-6666984D01*
X4634230Y-6666984D02*
X4672325Y-6666984D01*
X4672325Y-6666984D02*
X4691373Y-6657460D01*
X4691373Y-6657460D02*
X4700896Y-6638412D01*
X4700896Y-6638412D02*
X4700896Y-6628888D01*
X4700896Y-6628888D02*
X4691373Y-6609841D01*
X4691373Y-6609841D02*
X4672325Y-6600317D01*
X4672325Y-6600317D02*
X4643753Y-6600317D01*
X4643753Y-6600317D02*
X4624706Y-6590793D01*
X4624706Y-6590793D02*
X4615182Y-6571746D01*
X4615182Y-6571746D02*
X4615182Y-6562222D01*
X4615182Y-6562222D02*
X4624706Y-6543174D01*
X4624706Y-6543174D02*
X4643753Y-6533650D01*
X4643753Y-6533650D02*
X4672325Y-6533650D01*
X4672325Y-6533650D02*
X4691373Y-6543174D01*
X4767563Y-6743174D02*
X4777087Y-6733650D01*
X4777087Y-6733650D02*
X4796134Y-6705079D01*
X4796134Y-6705079D02*
X4805658Y-6686031D01*
X4805658Y-6686031D02*
X4815182Y-6657460D01*
X4815182Y-6657460D02*
X4824706Y-6609841D01*
X4824706Y-6609841D02*
X4824706Y-6571746D01*
X4824706Y-6571746D02*
X4815182Y-6524127D01*
X4815182Y-6524127D02*
X4805658Y-6495555D01*
X4805658Y-6495555D02*
X4796134Y-6476508D01*
X4796134Y-6476508D02*
X4777087Y-6447936D01*
X4777087Y-6447936D02*
X4767563Y-6438412D01*
X-36789Y-6926211D02*
X-36789Y-6784789D01*
X-178211Y-6784789D01*
X-178211Y-6926211D01*
X-36789Y-6926211D01*
X234229Y-6746984D02*
X358039Y-6746984D01*
X358039Y-6746984D02*
X291372Y-6823174D01*
X291372Y-6823174D02*
X319944Y-6823174D01*
X319944Y-6823174D02*
X338991Y-6832698D01*
X338991Y-6832698D02*
X348515Y-6842222D01*
X348515Y-6842222D02*
X358039Y-6861269D01*
X358039Y-6861269D02*
X358039Y-6908888D01*
X358039Y-6908888D02*
X348515Y-6927936D01*
X348515Y-6927936D02*
X338991Y-6937460D01*
X338991Y-6937460D02*
X319944Y-6946984D01*
X319944Y-6946984D02*
X262801Y-6946984D01*
X262801Y-6946984D02*
X243753Y-6937460D01*
X243753Y-6937460D02*
X234229Y-6927936D01*
X443753Y-6927936D02*
X453277Y-6937460D01*
X453277Y-6937460D02*
X443753Y-6946984D01*
X443753Y-6946984D02*
X434229Y-6937460D01*
X434229Y-6937460D02*
X443753Y-6927936D01*
X443753Y-6927936D02*
X443753Y-6946984D01*
X529467Y-6766031D02*
X538991Y-6756508D01*
X538991Y-6756508D02*
X558039Y-6746984D01*
X558039Y-6746984D02*
X605658Y-6746984D01*
X605658Y-6746984D02*
X624705Y-6756508D01*
X624705Y-6756508D02*
X634229Y-6766031D01*
X634229Y-6766031D02*
X643753Y-6785079D01*
X643753Y-6785079D02*
X643753Y-6804127D01*
X643753Y-6804127D02*
X634229Y-6832698D01*
X634229Y-6832698D02*
X519943Y-6946984D01*
X519943Y-6946984D02*
X643753Y-6946984D01*
X767562Y-6746984D02*
X786610Y-6746984D01*
X786610Y-6746984D02*
X805658Y-6756508D01*
X805658Y-6756508D02*
X815182Y-6766031D01*
X815182Y-6766031D02*
X824705Y-6785079D01*
X824705Y-6785079D02*
X834229Y-6823174D01*
X834229Y-6823174D02*
X834229Y-6870793D01*
X834229Y-6870793D02*
X824705Y-6908888D01*
X824705Y-6908888D02*
X815182Y-6927936D01*
X815182Y-6927936D02*
X805658Y-6937460D01*
X805658Y-6937460D02*
X786610Y-6946984D01*
X786610Y-6946984D02*
X767562Y-6946984D01*
X767562Y-6946984D02*
X748515Y-6937460D01*
X748515Y-6937460D02*
X738991Y-6927936D01*
X738991Y-6927936D02*
X729467Y-6908888D01*
X729467Y-6908888D02*
X719943Y-6870793D01*
X719943Y-6870793D02*
X719943Y-6823174D01*
X719943Y-6823174D02*
X729467Y-6785079D01*
X729467Y-6785079D02*
X738991Y-6766031D01*
X738991Y-6766031D02*
X748515Y-6756508D01*
X748515Y-6756508D02*
X767562Y-6746984D01*
X958039Y-6746984D02*
X977086Y-6746984D01*
X977086Y-6746984D02*
X996134Y-6756508D01*
X996134Y-6756508D02*
X1005658Y-6766031D01*
X1005658Y-6766031D02*
X1015182Y-6785079D01*
X1015182Y-6785079D02*
X1024705Y-6823174D01*
X1024705Y-6823174D02*
X1024705Y-6870793D01*
X1024705Y-6870793D02*
X1015182Y-6908888D01*
X1015182Y-6908888D02*
X1005658Y-6927936D01*
X1005658Y-6927936D02*
X996134Y-6937460D01*
X996134Y-6937460D02*
X977086Y-6946984D01*
X977086Y-6946984D02*
X958039Y-6946984D01*
X958039Y-6946984D02*
X938991Y-6937460D01*
X938991Y-6937460D02*
X929467Y-6927936D01*
X929467Y-6927936D02*
X919943Y-6908888D01*
X919943Y-6908888D02*
X910420Y-6870793D01*
X910420Y-6870793D02*
X910420Y-6823174D01*
X910420Y-6823174D02*
X919943Y-6785079D01*
X919943Y-6785079D02*
X929467Y-6766031D01*
X929467Y-6766031D02*
X938991Y-6756508D01*
X938991Y-6756508D02*
X958039Y-6746984D01*
X1110420Y-6946984D02*
X1110420Y-6813650D01*
X1110420Y-6832698D02*
X1119944Y-6823174D01*
X1119944Y-6823174D02*
X1138991Y-6813650D01*
X1138991Y-6813650D02*
X1167563Y-6813650D01*
X1167563Y-6813650D02*
X1186610Y-6823174D01*
X1186610Y-6823174D02*
X1196134Y-6842222D01*
X1196134Y-6842222D02*
X1196134Y-6946984D01*
X1196134Y-6842222D02*
X1205658Y-6823174D01*
X1205658Y-6823174D02*
X1224705Y-6813650D01*
X1224705Y-6813650D02*
X1253277Y-6813650D01*
X1253277Y-6813650D02*
X1272325Y-6823174D01*
X1272325Y-6823174D02*
X1281848Y-6842222D01*
X1281848Y-6842222D02*
X1281848Y-6946984D01*
X1377086Y-6946984D02*
X1377086Y-6813650D01*
X1377086Y-6832698D02*
X1386610Y-6823174D01*
X1386610Y-6823174D02*
X1405658Y-6813650D01*
X1405658Y-6813650D02*
X1434229Y-6813650D01*
X1434229Y-6813650D02*
X1453277Y-6823174D01*
X1453277Y-6823174D02*
X1462801Y-6842222D01*
X1462801Y-6842222D02*
X1462801Y-6946984D01*
X1462801Y-6842222D02*
X1472324Y-6823174D01*
X1472324Y-6823174D02*
X1491372Y-6813650D01*
X1491372Y-6813650D02*
X1519943Y-6813650D01*
X1519943Y-6813650D02*
X1538991Y-6823174D01*
X1538991Y-6823174D02*
X1548515Y-6842222D01*
X1548515Y-6842222D02*
X1548515Y-6946984D01*
X1938991Y-6737460D02*
X1767563Y-6994603D01*
X2196134Y-6746984D02*
X2215182Y-6746984D01*
X2215182Y-6746984D02*
X2234229Y-6756508D01*
X2234229Y-6756508D02*
X2243753Y-6766031D01*
X2243753Y-6766031D02*
X2253277Y-6785079D01*
X2253277Y-6785079D02*
X2262801Y-6823174D01*
X2262801Y-6823174D02*
X2262801Y-6870793D01*
X2262801Y-6870793D02*
X2253277Y-6908888D01*
X2253277Y-6908888D02*
X2243753Y-6927936D01*
X2243753Y-6927936D02*
X2234229Y-6937460D01*
X2234229Y-6937460D02*
X2215182Y-6946984D01*
X2215182Y-6946984D02*
X2196134Y-6946984D01*
X2196134Y-6946984D02*
X2177087Y-6937460D01*
X2177087Y-6937460D02*
X2167563Y-6927936D01*
X2167563Y-6927936D02*
X2158039Y-6908888D01*
X2158039Y-6908888D02*
X2148515Y-6870793D01*
X2148515Y-6870793D02*
X2148515Y-6823174D01*
X2148515Y-6823174D02*
X2158039Y-6785079D01*
X2158039Y-6785079D02*
X2167563Y-6766031D01*
X2167563Y-6766031D02*
X2177087Y-6756508D01*
X2177087Y-6756508D02*
X2196134Y-6746984D01*
X2348515Y-6927936D02*
X2358039Y-6937460D01*
X2358039Y-6937460D02*
X2348515Y-6946984D01*
X2348515Y-6946984D02*
X2338991Y-6937460D01*
X2338991Y-6937460D02*
X2348515Y-6927936D01*
X2348515Y-6927936D02*
X2348515Y-6946984D01*
X2548515Y-6946984D02*
X2434229Y-6946984D01*
X2491372Y-6946984D02*
X2491372Y-6746984D01*
X2491372Y-6746984D02*
X2472325Y-6775555D01*
X2472325Y-6775555D02*
X2453277Y-6794603D01*
X2453277Y-6794603D02*
X2434229Y-6804127D01*
X2624706Y-6766031D02*
X2634229Y-6756508D01*
X2634229Y-6756508D02*
X2653277Y-6746984D01*
X2653277Y-6746984D02*
X2700896Y-6746984D01*
X2700896Y-6746984D02*
X2719944Y-6756508D01*
X2719944Y-6756508D02*
X2729468Y-6766031D01*
X2729468Y-6766031D02*
X2738991Y-6785079D01*
X2738991Y-6785079D02*
X2738991Y-6804127D01*
X2738991Y-6804127D02*
X2729468Y-6832698D01*
X2729468Y-6832698D02*
X2615182Y-6946984D01*
X2615182Y-6946984D02*
X2738991Y-6946984D01*
X2910420Y-6746984D02*
X2872325Y-6746984D01*
X2872325Y-6746984D02*
X2853277Y-6756508D01*
X2853277Y-6756508D02*
X2843753Y-6766031D01*
X2843753Y-6766031D02*
X2824706Y-6794603D01*
X2824706Y-6794603D02*
X2815182Y-6832698D01*
X2815182Y-6832698D02*
X2815182Y-6908888D01*
X2815182Y-6908888D02*
X2824706Y-6927936D01*
X2824706Y-6927936D02*
X2834229Y-6937460D01*
X2834229Y-6937460D02*
X2853277Y-6946984D01*
X2853277Y-6946984D02*
X2891372Y-6946984D01*
X2891372Y-6946984D02*
X2910420Y-6937460D01*
X2910420Y-6937460D02*
X2919944Y-6927936D01*
X2919944Y-6927936D02*
X2929467Y-6908888D01*
X2929467Y-6908888D02*
X2929467Y-6861269D01*
X2929467Y-6861269D02*
X2919944Y-6842222D01*
X2919944Y-6842222D02*
X2910420Y-6832698D01*
X2910420Y-6832698D02*
X2891372Y-6823174D01*
X2891372Y-6823174D02*
X2853277Y-6823174D01*
X2853277Y-6823174D02*
X2834229Y-6832698D01*
X2834229Y-6832698D02*
X2824706Y-6842222D01*
X2824706Y-6842222D02*
X2815182Y-6861269D01*
X3053277Y-6746984D02*
X3072325Y-6746984D01*
X3072325Y-6746984D02*
X3091372Y-6756508D01*
X3091372Y-6756508D02*
X3100896Y-6766031D01*
X3100896Y-6766031D02*
X3110420Y-6785079D01*
X3110420Y-6785079D02*
X3119944Y-6823174D01*
X3119944Y-6823174D02*
X3119944Y-6870793D01*
X3119944Y-6870793D02*
X3110420Y-6908888D01*
X3110420Y-6908888D02*
X3100896Y-6927936D01*
X3100896Y-6927936D02*
X3091372Y-6937460D01*
X3091372Y-6937460D02*
X3072325Y-6946984D01*
X3072325Y-6946984D02*
X3053277Y-6946984D01*
X3053277Y-6946984D02*
X3034229Y-6937460D01*
X3034229Y-6937460D02*
X3024706Y-6927936D01*
X3024706Y-6927936D02*
X3015182Y-6908888D01*
X3015182Y-6908888D02*
X3005658Y-6870793D01*
X3005658Y-6870793D02*
X3005658Y-6823174D01*
X3005658Y-6823174D02*
X3015182Y-6785079D01*
X3015182Y-6785079D02*
X3024706Y-6766031D01*
X3024706Y-6766031D02*
X3034229Y-6756508D01*
X3034229Y-6756508D02*
X3053277Y-6746984D01*
X3196134Y-6746984D02*
X3196134Y-6785079D01*
X3272325Y-6746984D02*
X3272325Y-6785079D01*
X3567563Y-7023174D02*
X3558039Y-7013650D01*
X3558039Y-7013650D02*
X3538991Y-6985079D01*
X3538991Y-6985079D02*
X3529468Y-6966031D01*
X3529468Y-6966031D02*
X3519944Y-6937460D01*
X3519944Y-6937460D02*
X3510420Y-6889841D01*
X3510420Y-6889841D02*
X3510420Y-6851746D01*
X3510420Y-6851746D02*
X3519944Y-6804127D01*
X3519944Y-6804127D02*
X3529468Y-6775555D01*
X3529468Y-6775555D02*
X3538991Y-6756508D01*
X3538991Y-6756508D02*
X3558039Y-6727936D01*
X3558039Y-6727936D02*
X3567563Y-6718412D01*
X3634229Y-6766031D02*
X3643753Y-6756508D01*
X3643753Y-6756508D02*
X3662801Y-6746984D01*
X3662801Y-6746984D02*
X3710420Y-6746984D01*
X3710420Y-6746984D02*
X3729468Y-6756508D01*
X3729468Y-6756508D02*
X3738991Y-6766031D01*
X3738991Y-6766031D02*
X3748515Y-6785079D01*
X3748515Y-6785079D02*
X3748515Y-6804127D01*
X3748515Y-6804127D02*
X3738991Y-6832698D01*
X3738991Y-6832698D02*
X3624706Y-6946984D01*
X3624706Y-6946984D02*
X3748515Y-6946984D01*
X3986610Y-6946984D02*
X3986610Y-6746984D01*
X4072325Y-6946984D02*
X4072325Y-6842222D01*
X4072325Y-6842222D02*
X4062801Y-6823174D01*
X4062801Y-6823174D02*
X4043753Y-6813650D01*
X4043753Y-6813650D02*
X4015182Y-6813650D01*
X4015182Y-6813650D02*
X3996134Y-6823174D01*
X3996134Y-6823174D02*
X3986610Y-6832698D01*
X4196134Y-6946984D02*
X4177087Y-6937460D01*
X4177087Y-6937460D02*
X4167563Y-6927936D01*
X4167563Y-6927936D02*
X4158039Y-6908888D01*
X4158039Y-6908888D02*
X4158039Y-6851746D01*
X4158039Y-6851746D02*
X4167563Y-6832698D01*
X4167563Y-6832698D02*
X4177087Y-6823174D01*
X4177087Y-6823174D02*
X4196134Y-6813650D01*
X4196134Y-6813650D02*
X4224706Y-6813650D01*
X4224706Y-6813650D02*
X4243753Y-6823174D01*
X4243753Y-6823174D02*
X4253277Y-6832698D01*
X4253277Y-6832698D02*
X4262801Y-6851746D01*
X4262801Y-6851746D02*
X4262801Y-6908888D01*
X4262801Y-6908888D02*
X4253277Y-6927936D01*
X4253277Y-6927936D02*
X4243753Y-6937460D01*
X4243753Y-6937460D02*
X4224706Y-6946984D01*
X4224706Y-6946984D02*
X4196134Y-6946984D01*
X4377087Y-6946984D02*
X4358039Y-6937460D01*
X4358039Y-6937460D02*
X4348515Y-6918412D01*
X4348515Y-6918412D02*
X4348515Y-6746984D01*
X4529468Y-6937460D02*
X4510420Y-6946984D01*
X4510420Y-6946984D02*
X4472325Y-6946984D01*
X4472325Y-6946984D02*
X4453277Y-6937460D01*
X4453277Y-6937460D02*
X4443753Y-6918412D01*
X4443753Y-6918412D02*
X4443753Y-6842222D01*
X4443753Y-6842222D02*
X4453277Y-6823174D01*
X4453277Y-6823174D02*
X4472325Y-6813650D01*
X4472325Y-6813650D02*
X4510420Y-6813650D01*
X4510420Y-6813650D02*
X4529468Y-6823174D01*
X4529468Y-6823174D02*
X4538992Y-6842222D01*
X4538992Y-6842222D02*
X4538992Y-6861269D01*
X4538992Y-6861269D02*
X4443753Y-6880317D01*
X4615182Y-6937460D02*
X4634230Y-6946984D01*
X4634230Y-6946984D02*
X4672325Y-6946984D01*
X4672325Y-6946984D02*
X4691373Y-6937460D01*
X4691373Y-6937460D02*
X4700896Y-6918412D01*
X4700896Y-6918412D02*
X4700896Y-6908888D01*
X4700896Y-6908888D02*
X4691373Y-6889841D01*
X4691373Y-6889841D02*
X4672325Y-6880317D01*
X4672325Y-6880317D02*
X4643753Y-6880317D01*
X4643753Y-6880317D02*
X4624706Y-6870793D01*
X4624706Y-6870793D02*
X4615182Y-6851746D01*
X4615182Y-6851746D02*
X4615182Y-6842222D01*
X4615182Y-6842222D02*
X4624706Y-6823174D01*
X4624706Y-6823174D02*
X4643753Y-6813650D01*
X4643753Y-6813650D02*
X4672325Y-6813650D01*
X4672325Y-6813650D02*
X4691373Y-6823174D01*
X4767563Y-7023174D02*
X4777087Y-7013650D01*
X4777087Y-7013650D02*
X4796134Y-6985079D01*
X4796134Y-6985079D02*
X4805658Y-6966031D01*
X4805658Y-6966031D02*
X4815182Y-6937460D01*
X4815182Y-6937460D02*
X4824706Y-6889841D01*
X4824706Y-6889841D02*
X4824706Y-6851746D01*
X4824706Y-6851746D02*
X4815182Y-6804127D01*
X4815182Y-6804127D02*
X4805658Y-6775555D01*
X4805658Y-6775555D02*
X4796134Y-6756508D01*
X4796134Y-6756508D02*
X4777087Y-6727936D01*
X4777087Y-6727936D02*
X4767563Y-6718412D01*
X5129468Y-7023174D02*
X5119944Y-7013650D01*
X5119944Y-7013650D02*
X5100896Y-6985079D01*
X5100896Y-6985079D02*
X5091373Y-6966031D01*
X5091373Y-6966031D02*
X5081849Y-6937460D01*
X5081849Y-6937460D02*
X5072325Y-6889841D01*
X5072325Y-6889841D02*
X5072325Y-6851746D01*
X5072325Y-6851746D02*
X5081849Y-6804127D01*
X5081849Y-6804127D02*
X5091373Y-6775555D01*
X5091373Y-6775555D02*
X5100896Y-6756508D01*
X5100896Y-6756508D02*
X5119944Y-6727936D01*
X5119944Y-6727936D02*
X5129468Y-6718412D01*
X5205658Y-6813650D02*
X5205658Y-6946984D01*
X5205658Y-6832698D02*
X5215182Y-6823174D01*
X5215182Y-6823174D02*
X5234230Y-6813650D01*
X5234230Y-6813650D02*
X5262801Y-6813650D01*
X5262801Y-6813650D02*
X5281849Y-6823174D01*
X5281849Y-6823174D02*
X5291373Y-6842222D01*
X5291373Y-6842222D02*
X5291373Y-6946984D01*
X5415182Y-6946984D02*
X5396134Y-6937460D01*
X5396134Y-6937460D02*
X5386611Y-6927936D01*
X5386611Y-6927936D02*
X5377087Y-6908888D01*
X5377087Y-6908888D02*
X5377087Y-6851746D01*
X5377087Y-6851746D02*
X5386611Y-6832698D01*
X5386611Y-6832698D02*
X5396134Y-6823174D01*
X5396134Y-6823174D02*
X5415182Y-6813650D01*
X5415182Y-6813650D02*
X5443754Y-6813650D01*
X5443754Y-6813650D02*
X5462801Y-6823174D01*
X5462801Y-6823174D02*
X5472325Y-6832698D01*
X5472325Y-6832698D02*
X5481849Y-6851746D01*
X5481849Y-6851746D02*
X5481849Y-6908888D01*
X5481849Y-6908888D02*
X5472325Y-6927936D01*
X5472325Y-6927936D02*
X5462801Y-6937460D01*
X5462801Y-6937460D02*
X5443754Y-6946984D01*
X5443754Y-6946984D02*
X5415182Y-6946984D01*
X5538992Y-6813650D02*
X5615182Y-6813650D01*
X5567563Y-6746984D02*
X5567563Y-6918412D01*
X5567563Y-6918412D02*
X5577087Y-6937460D01*
X5577087Y-6937460D02*
X5596134Y-6946984D01*
X5596134Y-6946984D02*
X5615182Y-6946984D01*
X5834230Y-6813650D02*
X5834230Y-7013650D01*
X5834230Y-6823174D02*
X5853277Y-6813650D01*
X5853277Y-6813650D02*
X5891373Y-6813650D01*
X5891373Y-6813650D02*
X5910420Y-6823174D01*
X5910420Y-6823174D02*
X5919944Y-6832698D01*
X5919944Y-6832698D02*
X5929468Y-6851746D01*
X5929468Y-6851746D02*
X5929468Y-6908888D01*
X5929468Y-6908888D02*
X5919944Y-6927936D01*
X5919944Y-6927936D02*
X5910420Y-6937460D01*
X5910420Y-6937460D02*
X5891373Y-6946984D01*
X5891373Y-6946984D02*
X5853277Y-6946984D01*
X5853277Y-6946984D02*
X5834230Y-6937460D01*
X6043753Y-6946984D02*
X6024706Y-6937460D01*
X6024706Y-6937460D02*
X6015182Y-6918412D01*
X6015182Y-6918412D02*
X6015182Y-6746984D01*
X6205658Y-6946984D02*
X6205658Y-6842222D01*
X6205658Y-6842222D02*
X6196134Y-6823174D01*
X6196134Y-6823174D02*
X6177087Y-6813650D01*
X6177087Y-6813650D02*
X6138992Y-6813650D01*
X6138992Y-6813650D02*
X6119944Y-6823174D01*
X6205658Y-6937460D02*
X6186611Y-6946984D01*
X6186611Y-6946984D02*
X6138992Y-6946984D01*
X6138992Y-6946984D02*
X6119944Y-6937460D01*
X6119944Y-6937460D02*
X6110420Y-6918412D01*
X6110420Y-6918412D02*
X6110420Y-6899365D01*
X6110420Y-6899365D02*
X6119944Y-6880317D01*
X6119944Y-6880317D02*
X6138992Y-6870793D01*
X6138992Y-6870793D02*
X6186611Y-6870793D01*
X6186611Y-6870793D02*
X6205658Y-6861269D01*
X6272325Y-6813650D02*
X6348515Y-6813650D01*
X6300896Y-6746984D02*
X6300896Y-6918412D01*
X6300896Y-6918412D02*
X6310420Y-6937460D01*
X6310420Y-6937460D02*
X6329468Y-6946984D01*
X6329468Y-6946984D02*
X6348515Y-6946984D01*
X6491373Y-6937460D02*
X6472325Y-6946984D01*
X6472325Y-6946984D02*
X6434230Y-6946984D01*
X6434230Y-6946984D02*
X6415182Y-6937460D01*
X6415182Y-6937460D02*
X6405658Y-6918412D01*
X6405658Y-6918412D02*
X6405658Y-6842222D01*
X6405658Y-6842222D02*
X6415182Y-6823174D01*
X6415182Y-6823174D02*
X6434230Y-6813650D01*
X6434230Y-6813650D02*
X6472325Y-6813650D01*
X6472325Y-6813650D02*
X6491373Y-6823174D01*
X6491373Y-6823174D02*
X6500896Y-6842222D01*
X6500896Y-6842222D02*
X6500896Y-6861269D01*
X6500896Y-6861269D02*
X6405658Y-6880317D01*
X6672325Y-6946984D02*
X6672325Y-6746984D01*
X6672325Y-6937460D02*
X6653277Y-6946984D01*
X6653277Y-6946984D02*
X6615182Y-6946984D01*
X6615182Y-6946984D02*
X6596134Y-6937460D01*
X6596134Y-6937460D02*
X6586611Y-6927936D01*
X6586611Y-6927936D02*
X6577087Y-6908888D01*
X6577087Y-6908888D02*
X6577087Y-6851746D01*
X6577087Y-6851746D02*
X6586611Y-6832698D01*
X6586611Y-6832698D02*
X6596134Y-6823174D01*
X6596134Y-6823174D02*
X6615182Y-6813650D01*
X6615182Y-6813650D02*
X6653277Y-6813650D01*
X6653277Y-6813650D02*
X6672325Y-6823174D01*
X6748515Y-7023174D02*
X6758039Y-7013650D01*
X6758039Y-7013650D02*
X6777087Y-6985079D01*
X6777087Y-6985079D02*
X6786611Y-6966031D01*
X6786611Y-6966031D02*
X6796134Y-6937460D01*
X6796134Y-6937460D02*
X6805658Y-6889841D01*
X6805658Y-6889841D02*
X6805658Y-6851746D01*
X6805658Y-6851746D02*
X6796134Y-6804127D01*
X6796134Y-6804127D02*
X6786611Y-6775555D01*
X6786611Y-6775555D02*
X6777087Y-6756508D01*
X6777087Y-6756508D02*
X6758039Y-6727936D01*
X6758039Y-6727936D02*
X6748515Y-6718412D01*
M02*
