M48
; DRILL file {KiCad 7.0.11+dfsg-1build4} date Tue Jun 23 20:01:27 2026
; FORMAT={-:-/ absolute / metric / decimal}
; #@! TF.CreationDate,2026-06-23T20:01:27+00:00
; #@! TF.GenerationSoftware,Kicad,Pcbnew,7.0.11+dfsg-1build4
; #@! TF.FileFunction,MixedPlating,1,2
FMAT,2
METRIC
; #@! TA.AperFunction,Plated,PTH,ComponentDrill
T1C1.000
; #@! TA.AperFunction,Plated,PTH,ComponentDrill
T2C1.200
; #@! TA.AperFunction,Plated,PTH,ComponentDrill
T3C1.600
; #@! TA.AperFunction,NonPlated,NPTH,ComponentDrill
T4C3.200
%
G90
G05
T1
X29.0Y-27.0
X37.0Y-27.0
T2
X6.0Y-11.0
X6.0Y-16.08
X6.0Y-23.0
X6.0Y-28.08
X16.25Y-16.0
X16.25Y-40.0
X23.75Y-16.0
X23.75Y-40.0
X42.25Y-16.0
X42.25Y-40.0
X49.75Y-16.0
X49.75Y-40.0
T3
X9.0Y-49.0
X16.25Y-7.0
X16.25Y-49.0
X42.25Y-7.0
X42.25Y-49.0
X55.0Y-49.0
T4
X57.5Y-9.0
X57.5Y-45.0
M30
